<svg width="519" height="320" viewBox="0 0 519 320" fill="none" xmlns="http://www.w3.org/2000/svg">
<g clip-path="url(#clip0_105:14)">
<path d="M407.049 18.8566L406.681 107.634H406.677V18.9607H181.755V107.636H181.751L181.382 19.3211L93.0241 107.637V115.601L293.598 318.189L495.409 115.596V107.633L407.049 18.8566Z" fill="#E9C46A"/>
<path d="M93.6237 16.9445L95.8853 46.5371L162.755 17.6371L211.836 44.0194L260.307 18.0443L321.321 49.852L320.062 16.9445H93.6237Z" stroke="#84A59D" stroke-opacity="0.997685" stroke-width="4"/>
<path d="M93.6202 106.22L4.29556 106.221L95.8853 46.5394L93.6202 106.22Z" stroke="#84A59D" stroke-opacity="0.997685" stroke-width="4"/>
<path d="M4.29556 106.221V114.238L409.39 114.233V106.216L4.29556 106.221Z" stroke="#84A59D" stroke-opacity="0.997685" stroke-width="4"/>
<path d="M206.22 318.19L252.253 113.988L147.403 113.783L206.22 318.19Z" stroke="#84A59D" stroke-opacity="0.997685" stroke-width="4"/>
<path d="M95.8853 46.5395L4.29556 106.221L93.248 17.3098L95.8853 46.5395Z" stroke="#84A59D" stroke-opacity="0.997685" stroke-width="4"/>
<path d="M320.437 16.8421L409.391 106.216L321.321 49.8543L320.437 16.8421Z" stroke="#84A59D" stroke-opacity="0.997685" stroke-width="4"/>
<path d="M162.756 17.6392L95.8856 46.5393L93.6207 106.219L211.837 44.0216L162.756 17.6392ZM211.837 44.0216L320.062 106.217L321.321 49.8542L260.307 18.0465L211.837 44.0216Z" stroke="#84A59D" stroke-opacity="0.997685" stroke-width="4"/>
<path d="M211.836 44.0217L93.62 106.22L320.062 106.217L211.836 44.0217Z" stroke="#84A59D" stroke-opacity="0.997685" stroke-width="4"/>
<path d="M320.062 106.217L409.39 106.216L321.32 49.8542L320.062 106.217Z" stroke="#84A59D" stroke-opacity="0.997685" stroke-width="4"/>
<path d="M4.29515 114.238L206.22 318.19L63.4316 114.414L4.29515 114.238Z" stroke="#84A59D" stroke-opacity="0.997685" stroke-width="4"/>
<path d="M206.219 318.19L147.402 113.784L63.4312 114.413L206.219 318.19Z" stroke="#84A59D" stroke-opacity="0.997685" stroke-width="4"/>
<path d="M206.219 318.19L341.133 114.413L252.253 113.988L206.219 318.19Z" stroke="#84A59D" stroke-opacity="0.997685" stroke-width="4"/>
<path d="M206.219 318.19L409.39 114.233L341.133 114.414L206.219 318.19Z" stroke="#84A59D" stroke-opacity="0.997685" stroke-width="4"/>
</g>
<defs>
<clipPath id="clip0_105:14">
<rect width="519" height="320" fill="white"/>
</clipPath>
</defs>
</svg>
