<svg width="92" height="92" viewBox="0 0 92 92" fill="none" xmlns="http://www.w3.org/2000/svg">
<circle cx="46" cy="46" r="46" fill="#393232"/>
<path d="M6.47171 69.5406C12.0714 78.9217 20.9168 86.141 31.4583 89.6505C33.7598 90.0713 34.5985 88.6508 34.5985 87.4309C34.5985 86.9258 34.59 86.0334 34.5787 84.8392C34.5655 83.4561 34.5485 81.6682 34.5364 79.6087C21.7413 82.3874 19.0416 73.4413 19.0416 73.4413C16.9491 68.1295 13.9332 66.7147 13.9332 66.7147C9.75662 63.8598 14.2495 63.9162 14.2495 63.9162C18.8665 64.2438 21.2951 68.6576 21.2951 68.6576C25.3982 75.6863 32.0626 73.6559 34.6832 72.4811C35.1012 69.5076 36.2872 67.48 37.6031 66.3307C27.3891 65.1701 16.6498 61.2222 16.6498 43.5954C16.6498 38.5745 18.4429 34.4686 21.3855 31.2521C20.911 30.0887 19.3325 25.4123 21.8345 19.0783C21.8345 19.0783 25.6976 17.8414 34.4855 23.7942C38.1538 22.7748 42.0903 22.2636 46.0014 22.2467C49.9069 22.2636 53.8434 22.7748 57.5173 23.7942C66.2997 17.8414 70.1543 19.0783 70.1543 19.0783C72.6647 25.4123 71.0862 30.0887 70.6118 31.2521C73.5599 34.4686 75.3418 38.5745 75.3418 43.5954C75.3418 61.2674 64.5856 65.1559 54.3376 66.294C55.9896 67.7144 57.4608 70.5214 57.4608 74.8137C57.4608 78.9251 57.4356 82.506 57.4188 84.8782C57.4106 86.0531 57.4044 86.9314 57.4044 87.4309C57.4044 88.6621 58.2318 90.0938 60.5671 89.6448C68.9648 86.8417 76.285 81.6855 81.7433 74.9578C73.3095 85.3549 60.4308 92 46 92C29.1977 92 14.4994 82.9914 6.47171 69.5406Z" fill="white"/>
</svg>
