<svg width="92" height="92" viewBox="0 0 92 92" fill="none" xmlns="http://www.w3.org/2000/svg">
<circle cx="46" cy="46" r="46" fill="#16211E"/>
<path d="M46.0001 23.3728C53.3695 23.3728 54.2425 23.401 57.1528 23.5338C59.8438 23.6565 61.3052 24.1061 62.2777 24.4841C63.566 24.9848 64.4854 25.5829 65.4512 26.5486C66.417 27.5145 67.0151 28.4339 67.5158 29.7222C67.8938 30.6947 68.3434 32.1561 68.4661 34.8471C68.5989 37.7574 68.6271 38.6303 68.6271 45.9998C68.6271 53.3693 68.5989 54.2422 68.4661 57.1525C68.3434 59.8435 67.8938 61.3049 67.5158 62.2774C67.0151 63.5657 66.417 64.4851 65.4513 65.4509C64.4854 66.4168 63.566 67.0148 62.2777 67.5155C61.3052 67.8935 59.8438 68.3431 57.1528 68.4658C54.2429 68.5986 53.3701 68.6268 46.0001 68.6268C38.63 68.6268 37.7572 68.5986 34.8473 68.4658C32.1563 68.3431 30.6949 67.8935 29.7223 67.5155C28.434 67.0148 27.5146 66.4168 26.5489 65.4509C25.5831 64.4851 24.9849 63.5657 24.4842 62.2774C24.1063 61.3049 23.6566 59.8435 23.5339 57.1525C23.4011 54.2422 23.373 53.3693 23.373 45.9998C23.373 38.6303 23.4011 37.7574 23.5339 34.8471C23.6566 32.1561 24.1063 30.6947 24.4842 29.7222C24.9849 28.4339 25.583 27.5145 26.5489 26.5487C27.5146 25.5829 28.434 24.9848 29.7223 24.4841C30.6949 24.1061 32.1563 23.6565 34.8473 23.5338C37.7576 23.401 38.6305 23.3728 46.0001 23.3728ZM46.0001 18.3999C38.5043 18.3999 37.5644 18.4317 34.6206 18.566C31.6829 18.7 29.6765 19.1666 27.921 19.8488C26.106 20.5541 24.5668 21.4979 23.0324 23.0322C21.498 24.5667 20.5543 26.1059 19.849 27.9208C19.1667 29.6764 18.7001 31.6827 18.5661 34.6204C18.4318 37.5642 18.4 38.5041 18.4 45.9998C18.4 53.4955 18.4318 54.4354 18.5661 57.3792C18.7001 60.3169 19.1667 62.3232 19.849 64.0788C20.5543 65.8937 21.498 67.4329 23.0324 68.9674C24.5668 70.5017 26.106 71.4455 27.921 72.1507C29.6765 72.833 31.6829 73.2996 34.6206 73.4336C37.5644 73.5679 38.5043 73.5997 46.0001 73.5997C53.4957 73.5997 54.4356 73.5679 57.3795 73.4336C60.3172 73.2996 62.3235 72.833 64.0791 72.1507C65.894 71.4455 67.4332 70.5017 68.9677 68.9674C70.502 67.4329 71.4458 65.8937 72.1511 64.0788C72.8333 62.3232 73.2999 60.3169 73.4339 57.3792C73.5682 54.4354 73.6 53.4955 73.6 45.9998C73.6 38.5041 73.5682 37.5642 73.4339 34.6204C73.2999 31.6827 72.8333 29.6764 72.1511 27.9208C71.4458 26.1059 70.502 24.5667 68.9677 23.0322C67.4332 21.4979 65.894 20.5541 64.0791 19.8488C62.3235 19.1666 60.3172 18.7 57.3795 18.566C54.4356 18.4317 53.4957 18.3999 46.0001 18.3999Z" fill="white"/>
<path d="M46.0128 31.8401C38.1852 31.8401 31.8398 38.1855 31.8398 46.013C31.8398 53.8405 38.1852 60.1859 46.0128 60.1859C53.8403 60.1859 60.1857 53.8405 60.1857 46.013C60.1857 38.1855 53.8403 31.8401 46.0128 31.8401ZM46.0128 55.213C40.9317 55.213 36.8127 51.094 36.8127 46.013C36.8127 40.932 40.9317 36.813 46.0128 36.813C51.0938 36.813 55.2127 40.932 55.2127 46.013C55.2127 51.094 51.0938 55.213 46.0128 55.213Z" fill="white"/>
<path d="M64.0568 31.2715C64.0568 33.1006 62.5739 34.5835 60.7447 34.5835C58.9156 34.5835 57.4327 33.1006 57.4327 31.2715C57.4327 29.4423 58.9156 27.9595 60.7447 27.9595C62.5739 27.9595 64.0568 29.4423 64.0568 31.2715Z" fill="white"/>
</svg>
