<svg width="92" height="92" viewBox="0 0 92 92" fill="none" xmlns="http://www.w3.org/2000/svg">
<circle cx="46" cy="46" r="46" fill="#ED4040"/>
<path fill-rule="evenodd" clip-rule="evenodd" d="M71.9911 28.4696C72.9091 29.3875 73.5705 30.5299 73.9096 31.783C75.8621 39.6422 75.4109 52.0546 73.9475 60.2171C73.6084 61.4702 72.947 62.6126 72.029 63.5305C71.1111 64.4484 69.9687 65.1099 68.7156 65.449C64.1283 66.7001 45.6651 66.7001 45.6651 66.7001C45.6651 66.7001 27.2019 66.7001 22.6145 65.449C21.3614 65.1099 20.219 64.4484 19.3011 63.5305C18.3832 62.6126 17.7217 61.4702 17.3827 60.2171C15.4188 52.392 15.9572 39.972 17.3448 31.8209C17.6838 30.5678 18.3453 29.4254 19.2632 28.5075C20.1811 27.5896 21.3235 26.9281 22.5766 26.5891C27.164 25.338 45.6272 25.3 45.6272 25.3C45.6272 25.3 64.0903 25.3 68.6777 26.5511C69.9308 26.8902 71.0732 27.5517 71.9911 28.4696ZM55.0673 46L39.7508 54.8715V37.1286L55.0673 46Z" fill="white"/>
</svg>
